<svg xmlns="http://www.w3.org/2000/svg" xmlns:xlink="http://www.w3.org/1999/xlink" id="Layer_1" x="0px" y="0px" viewBox="0 0 325 100" style="enable-background:new 0 0 325 100;" xml:space="preserve"><style type="text/css">	.st0{fill:#1A1E44;}	.st1{fill:#EC502D;}</style><g>	<path class="st0" d="M100.4,30.5c-2.5-6-6.1-11.3-10.7-15.9c-4.6-4.6-9.9-8.2-15.9-10.7C67.6,1.3,61,0,54.3,0S41,1.3,34.8,3.9  c-6,2.5-11.3,6.1-15.9,10.7c-4.6,4.6-8.2,9.9-10.7,15.9C5.6,36.7,4.3,43.3,4.3,50c0,6.7,1.3,13.3,3.9,19.5  c2.5,6,6.1,11.3,10.7,15.9c4.6,4.6,9.9,8.2,15.9,10.7c6.2,2.6,12.7,3.9,19.5,3.9s13.3-1.3,19.5-3.9c6-2.5,11.3-6.1,15.9-10.7  c4.6-4.6,8.2-9.9,10.7-15.9c2.6-6.2,3.9-12.7,3.9-19.5S103,36.7,100.4,30.5z M44.9,9.6c0.1,2.1,0.3,4.2,0.6,6.3  c1,6.1,2,12.2,2.7,18.4c0.5,5.3,0.8,10.6,0.5,15.9c-0.3,5-1.2,9.9-2.2,14.7c-0.9,4.4-2,8.8-3,13.2c-0.8,3.5-1.5,7-1.5,10.6  c0,2.4,0.4,4.7,1.9,6.6c-0.3-0.3-0.6-0.5-0.9-0.9c-4.4-4.9-3.3-15-1.9-26.7c0.7-6.4,1.5-13.7,1.5-20.9c0-5.8-0.3-11.3-0.5-16.1  c-0.6-12.1-1-21.7,3.1-25.9c0.2-0.2,0.4-0.4,0.5-0.5C44.9,5.9,44.8,7.8,44.9,9.6z M38.7,10.1c-1.5,3.3-2.8,7-3.3,10.6  c-0.6,4.5-0.8,9.1-0.9,13.7c-0.1,5.2,0,10.5-0.1,15.7c-0.1,5-0.2,9.9-0.3,14.9c-0.1,4.4-0.1,8.8,0.4,13.2c0.3,3.5,1.5,7.1,2.8,10.4  c1,2.3,2.4,4.3,4.1,5.9c-2-1.4-3.8-3.2-5.2-5.2c-4.4-6.2-5.8-14.1-6.6-21.5c-0.5-4.4-0.7-8.9-0.7-13.3C28.7,49,28.7,43.6,29,38.2  c0.5-8.5,1.6-17.4,5.5-25c1.6-3.2,3.9-6.5,7.1-8.4C42.3,4.3,43,4,43.7,3.6C41.5,5.3,39.8,7.5,38.7,10.1z M45.5,95.6  c-1.3-1.8-1.1-4.3-0.8-6.4c0.6-3.5,1.8-6.8,3.1-10.1c1.5-4,4.1-8,5.4-12.1c1.5-4.4,2.7-9,3.5-13.6c0.8-4.9,0.9-9.9,0.4-14.8  c-0.8-8.8-4.5-17.1-7.2-25.4c-0.9-2.7-2-5.6-2-8.5c0-1.3,1-2.3,1.3-2.3c-2.1,4,13.3,19.6,13.3,42.6C62.5,66.3,43.5,87.7,45.5,95.6z   M30.6,10.1c-6.1,6.6-9.1,15.4-10.6,24c-1.7,10.1-1.5,20.7,0.1,30.8c1.4,8.4,4.1,17,9.7,23.6c1.7,2,3.7,3.8,5.8,5.3  c-2.3-1.2-4.5-2.6-6.5-4.3c-6.8-5.7-11.4-13.7-13.9-22.2c-2.8-9.4-3.4-19.6-1.7-29.3c1.6-9.1,5.4-18,11.8-24.9  c3.4-3.7,7.6-6.5,12.1-8.4C35,6.1,32.6,7.9,30.6,10.1z M66.2,45c0-26.2-19.1-42.5-9.8-42.5c23,0,41.7,21.2,41.7,47.4  c0,26.2-18.7,47.4-41.7,47.4C39.5,97.4,66.2,71.2,66.2,45z"></path>	<path class="st1" d="M114.6,58.9h3.8c0.6,4.3,4.6,5.7,8.7,5.7c4.3,0,7.9-1.6,7.9-5.6c0-3.2-2.2-4.2-5.6-5.1l-5.8-1.4  c-5.3-1.3-8-3.9-8-8.1c0-5.3,4.5-8.2,11.3-8.2c6.8,0,11.3,2.8,11.6,8.9H135c-0.6-4.2-3.6-5.5-8-5.5c-4.7,0-7.3,1.5-7.3,4.9  c0,2.5,1.5,4,5.3,4.9l5.8,1.3c5.1,1.2,8.6,3.1,8.6,8.2c0,6.8-6,9-12.2,9C120.3,67.9,114.9,65.2,114.6,58.9z"></path>	<path class="st1" d="M145,24.9c1.5,0,2.7,1.2,2.7,2.8c0,1.5-1.2,2.7-2.7,2.7s-2.8-1.2-2.8-2.7C142.3,26.2,143.5,24.9,145,24.9z   M142.9,36.8h4.2v30.5h-4.2V36.8z"></path>	<path class="st1" d="M152.1,70.2h3.6c0.2,3.8,4.2,6,9.5,6c5.8,0,10.4-2.6,10.4-9.3v-5.9h-0.1c-2.2,3.8-6.6,5.6-11,5.6  c-7,0-13.5-4.6-13.5-15.2c0-10.6,6.6-15.3,13.5-15.3c4.4,0,8.8,1.9,11,5.6h0.1v-5.1h4.2v30.1c0,10-7.9,12.7-14.6,12.7  C158.8,79.6,152.1,77.1,152.1,70.2z M165.3,63.2c5.3,0,10.5-3.7,10.5-11.7c0-8-5.1-11.7-10.5-11.7c-5.4,0-10.3,3.8-10.3,11.7  C155,59.5,159.9,63.2,165.3,63.2z"></path>	<path class="st1" d="M197.4,39.8c-5.8,0-9.3,3.6-9.3,9.6v18h-4.2V36.8h4.2v5.8c0.6-2.1,3.8-6.3,10.7-6.3c6,0,11,3.2,11,12.3v18.8  h-4.2v-18C205.7,43.4,203.2,39.8,197.4,39.8z"></path>	<path class="st1" d="M213.7,59.6c0-5.2,3.5-7.9,9.6-8.7l7.9-0.9c3.3-0.4,4.3-1.1,4.3-2.1l0-1c0-4-3.1-7.3-7.1-7.5  c-6-0.2-9,1.6-9,5.9v0.7h-4v-1c0-6.1,4.3-8.9,12.2-8.9c8.1,0,12,3.1,12,10.4v20.7h-4v-5.4h-0.2c-0.8,1.6-4.3,6-11.9,6  C217.9,67.9,213.7,65.3,213.7,59.6z M224.6,64.6c7.5,0,10.9-5,10.9-8v-4.9c-0.2,0.7-1.4,1.3-4.6,1.6l-6.6,0.8  c-4.9,0.6-6.5,2.4-6.5,5.2C217.9,63.2,220.8,64.6,224.6,64.6z"></path>	<path class="st1" d="M245.1,26.2h4.2v41.1h-4.2V26.2z"></path>	<path class="st0" d="M253.5,46.4c0-12.9,5.6-20.7,17-20.7c10.6,0,14.7,7.1,14.5,12.7h-9.5c-0.6-4-3.8-4.2-5.2-4.2  c-5.9,0-6.9,6.3-6.8,9.3c1.6-1.5,4.2-3.5,8.6-3.5c5.2,0,13.7,2.7,13.7,13.7c0,12.1-10.3,14.1-15.8,14.1  C261.9,67.9,253.5,62.8,253.5,46.4z M270,59.2c1.6,0,5.5-0.6,5.5-5.5c0-4.7-3.9-5.5-5.6-5.5c-1.5,0-5.4,0.8-5.4,5.5  C264.5,58.6,268.4,59.2,270,59.2z"></path>	<path class="st0" d="M288.6,53.8h9.8c0.2,4.6,4.1,5.4,5.6,5.4c1.5,0,5.8-0.5,5.8-6.2c0-5.9-4.4-6.1-5.7-6.1c-2.3,0-4.8,1.2-5.3,3.2  h-9.8l3.5-23.8h24.1v8.6h-16.7l-0.8,6.3c-0.6,0.8,1.5-2.6,8-2.6c7.9,0,13.6,5.5,13.6,14.3c0,9.7-6.6,15-16.3,15  C294.2,67.9,288.4,62.1,288.6,53.8z"></path></g></svg>